<svg width="52" height="68" viewBox="0 0 52 68" fill="none" xmlns="http://www.w3.org/2000/svg">
<path d="M47.3125 37.7055L37.7625 21.7946C39.1125 21.0375 40.0375 19.5235 40.0375 17.7969C40.0375 15.8977 38.925 14.2641 37.3625 13.6L40.2625 2.84222C40.3875 2.37737 40.2625 1.87268 39.95 1.54065C38.025 -0.504659 34.8875 -0.504659 32.9625 1.54065C32.5 2.03206 31.8875 2.29768 31.2375 2.29768C30.5875 2.29768 29.975 2.03206 29.5125 1.54065C27.5875 -0.504659 24.4625 -0.504659 22.5375 1.52737L22.5 1.56722C21.55 2.57659 20 2.56331 19.0625 1.56722L19.05 1.55393C17.125 -0.491378 13.9875 -0.491378 12.0625 1.55393C11.7375 1.89925 11.625 2.39065 11.75 2.8555L14.65 13.6C13.075 14.2641 11.9625 15.8977 11.9625 17.7969C11.9625 19.5367 12.8875 21.0375 14.2375 21.7946L4.68754 37.7055C0.987537 43.868 0.750037 51.3719 4.05004 57.7735C7.35004 64.175 13.4375 68 20.3 68H31.675C38.55 68 44.625 64.175 47.925 57.7735C51.25 51.3719 51.0125 43.868 47.3125 37.7055ZM17.275 3.42659C19.2 5.4719 22.325 5.48518 24.2625 3.45315L24.3 3.41331C25.25 2.40393 26.8 2.41722 27.75 3.42659C29.675 5.4719 32.8125 5.4719 34.7375 3.42659C35.525 2.58987 36.7125 2.44378 37.6375 2.98831L34.85 13.2813H17.15L14.375 2.97503C15.3 2.44378 16.4875 2.58987 17.275 3.42659ZM45.75 56.4985C42.8875 62.0367 37.6375 65.3438 31.6875 65.3438H20.3125C14.3625 65.3438 9.11254 62.0367 6.25004 56.4985C3.38754 50.9602 3.58754 44.4657 6.78754 39.1399L16.8875 22.3125H20.375C21.0625 22.3125 21.625 21.7149 21.625 20.9844C21.625 20.2539 21.0625 19.6563 20.375 19.6563H16.2125C15.25 19.6563 14.4625 18.8196 14.4625 17.7969C14.4625 16.7742 15.25 15.9375 16.2125 15.9375H35.7875C36.75 15.9375 37.5375 16.7742 37.5375 17.7969C37.5375 18.8196 36.75 19.6563 35.7875 19.6563H31.625C30.9375 19.6563 30.375 20.2539 30.375 20.9844C30.375 21.7149 30.9375 22.3125 31.625 22.3125H35.1125L45.2125 39.1399C48.4125 44.4657 48.6125 50.9602 45.75 56.4985Z" fill="black" stroke="black" stroke-width="2" stroke-miterlimit="10"/>
<path d="M28.2001 43.3766C27.8876 43.2571 27.5626 43.1375 27.2501 43.0047V36.9883C28.1001 37.2539 28.6626 37.6789 28.6876 37.7055C29.2376 38.1438 30.0126 38.0243 30.4376 37.4399C30.8501 36.8555 30.7501 36.0188 30.2001 35.5805C30.1251 35.5274 28.9626 34.611 27.2626 34.2524V32.9243C27.2626 32.1938 26.7001 31.5961 26.0126 31.5961C25.3251 31.5961 24.7626 32.1938 24.7626 32.9243V34.2391C24.5501 34.2789 24.3376 34.3321 24.1126 34.4118C22.3501 34.9696 21.0376 36.5766 20.6751 38.5821C20.3501 40.4149 20.9001 42.1946 22.1251 43.2039C22.7876 43.7485 23.6126 44.2532 24.7501 44.7977V52.5008C23.7626 52.4344 23.1126 52.1953 22.0126 51.4383C21.4376 51.0399 20.6626 51.2125 20.2876 51.8235C19.9126 52.4344 20.0751 53.2578 20.6501 53.6563C22.2501 54.7719 23.3376 55.0907 24.7626 55.1571V56.525C24.7626 57.2555 25.3251 57.8532 26.0126 57.8532C26.7001 57.8532 27.2626 57.2555 27.2626 56.525V55.011C29.9376 54.3867 31.5001 52.0094 31.8626 49.7914C32.3001 46.8961 30.8751 44.3727 28.2001 43.3766ZM23.6626 41.1188C23.1876 40.7203 22.9751 39.9368 23.1251 39.0735C23.2626 38.2899 23.7626 37.3336 24.7501 36.975V41.836C24.3376 41.6235 23.9626 41.3711 23.6626 41.1188ZM29.3751 49.3664C29.2001 50.5086 28.4751 51.7172 27.2501 52.2485V45.8469C27.2876 45.8602 27.3251 45.8735 27.3751 45.8868C29.6126 46.7235 29.4751 48.7555 29.3751 49.3664Z" fill="black" stroke="black" stroke-width="2" stroke-miterlimit="10"/>
<path d="M26 22.3125C26.325 22.3125 26.65 22.1664 26.8875 21.9273C27.125 21.6883 27.25 21.343 27.25 20.9844C27.25 20.6258 27.1125 20.2937 26.8875 20.0414C26.65 19.7891 26.3375 19.6562 26 19.6562C25.6625 19.6562 25.35 19.8023 25.1125 20.0414C24.875 20.2937 24.75 20.6258 24.75 20.9844C24.75 21.343 24.8875 21.675 25.1125 21.9273C25.35 22.1664 25.675 22.3125 26 22.3125Z" fill="black" stroke="black" stroke-width="2" stroke-miterlimit="10"/>
</svg>
