<svg width="64" height="68" viewBox="0 0 64 68" fill="none" xmlns="http://www.w3.org/2000/svg">
<path d="M63.6375 0.385156C63.4 0.146094 63.075 0 62.75 0H32C31.3125 0 30.75 0.597656 30.75 1.32812V5.12656L18.9 8.5C18.2375 8.68594 17.8375 9.41641 18.0125 10.1203L24.15 34.4648L18.8375 40.1094C18.1625 39.0602 17.025 38.3695 15.7375 38.3695H3.75C1.6875 38.3695 0 40.1625 0 42.3539V64.0023C0 66.1937 1.6875 67.9867 3.75 67.9867H15.75C17.5125 67.9867 18.9875 66.6984 19.3875 64.9586L20.875 66.3398C22.025 67.4023 23.4875 67.9867 25.0125 67.9867H62.75C63.4375 67.9867 64 67.3891 64 66.6586V1.32812C64 0.969531 63.8625 0.6375 63.6375 0.385156ZM17 64.0156C17 64.7461 16.4375 65.3438 15.75 65.3438H3.75C3.0625 65.3438 2.5 64.7461 2.5 64.0156V42.3672C2.5 41.6367 3.0625 41.0391 3.75 41.0391H8.5V56.3391C8.5 57.0695 9.0625 57.6672 9.75 57.6672C10.4375 57.6672 11 57.0695 11 56.3391V41.0391H15.75C16.4375 41.0391 17 41.6367 17 42.3672V64.0156ZM20.75 10.718L30.75 7.87578V12.8031L29.9125 13.0422C29.5875 13.1352 29.325 13.3609 29.15 13.6664C28.975 13.9719 28.9375 14.3305 29.025 14.6758C29.5 16.575 28.4375 18.5406 26.65 19.0586C26.325 19.1516 26.05 19.3773 25.8875 19.6828C25.725 19.9883 25.675 20.3469 25.7625 20.6922L30.6375 39.857H28.125L26.8375 34.4781C26.8 34.3055 26.725 34.1461 26.625 34.0133L20.75 10.718ZM30.75 18.8859V30.0953L28.475 21.1305C29.425 20.5992 30.2 19.8289 30.75 18.8859ZM48.7125 65.3438H25.0125C24.1 65.3438 23.2125 64.9852 22.5125 64.3477L19.5 61.5586V43.1773L24.9625 37.3734L25.95 41.4906C26.0875 42.075 26.5875 42.4867 27.1625 42.4867H51.7375C52.7 42.4867 53.4875 43.3234 53.4875 44.3461C53.4875 45.3687 52.7 46.2055 51.7375 46.2055H39.1375C38.45 46.2055 37.8875 46.8031 37.8875 47.5336C37.8875 48.2641 38.45 48.8617 39.1375 48.8617H55.6375C56.6 48.8617 57.3875 49.6984 57.3875 50.7211C57.3875 51.7437 56.6 52.5805 55.6375 52.5805H39.1375C38.45 52.5805 37.8875 53.1781 37.8875 53.9086C37.8875 54.6391 38.45 55.2367 39.1375 55.2367H52.9625C53.925 55.2367 54.7125 56.0734 54.7125 57.0961C54.7125 58.1187 53.925 58.9555 52.9625 58.9555H39.1375C38.45 58.9555 37.8875 59.5531 37.8875 60.2836C37.8875 61.0141 38.45 61.6117 39.1375 61.6117H48.7C49.6625 61.6117 50.45 62.4484 50.45 63.4711C50.4625 64.507 49.675 65.3438 48.7125 65.3438ZM61.5 65.3438H52.575C52.8125 64.7727 52.95 64.1484 52.95 63.4844C52.95 62.8203 52.8125 62.1961 52.575 61.625H52.9625C55.3 61.625 57.2125 59.593 57.2125 57.1094C57.2125 56.3789 57.05 55.7016 56.7625 55.0906C58.5625 54.5594 59.8875 52.8195 59.8875 50.7344C59.8875 49.725 59.575 48.7953 59.05 48.0383V31.2109C59.05 30.4805 58.4875 29.8828 57.8 29.8828C57.1125 29.8828 56.55 30.4805 56.55 31.2109V46.325C56.25 46.2586 55.95 46.2188 55.6375 46.2188H55.6C55.8375 45.6477 55.975 45.0234 55.975 44.3594C55.975 41.8758 54.0625 39.8438 51.725 39.8438H49.7125C51.85 38.8742 53.35 36.6164 53.35 34C53.35 30.4937 50.6625 27.6383 47.3625 27.6383C44.0625 27.6383 41.375 30.4937 41.375 34C41.375 36.6164 42.875 38.8742 45.0125 39.8438H38.175V14.5961C40.4125 14.0781 42.175 12.2055 42.6625 9.82812H52.0625C52.55 12.2055 54.3125 14.0781 56.55 14.5961V18.7266C56.55 19.457 57.1125 20.0547 57.8 20.0547C58.4875 20.0547 59.05 19.457 59.05 18.7266V13.4141C59.05 12.6836 58.4875 12.0859 57.8 12.0859C55.95 12.0859 54.4375 10.4789 54.4375 8.51328C54.4375 7.78281 53.875 7.18516 53.1875 7.18516H41.55C40.8625 7.18516 40.3 7.78281 40.3 8.51328C40.3 10.4789 38.7875 12.0859 36.9375 12.0859C36.25 12.0859 35.6875 12.6836 35.6875 13.4141V39.8438H33.25V2.65625H61.5V65.3438ZM47.375 37.7055C45.45 37.7055 43.8875 36.0453 43.8875 34C43.8875 31.9547 45.45 30.2945 47.375 30.2945C49.3 30.2945 50.8625 31.9547 50.8625 34C50.8625 36.0453 49.3 37.7055 47.375 37.7055Z" fill="black" stroke="black" stroke-width="2" stroke-miterlimit="10"/>
</svg>
