<svg width="64" height="66" viewBox="0 0 64 66" fill="none" xmlns="http://www.w3.org/2000/svg">
<path d="M62.75 61.6876H60.6125V30.9946C60.6125 30.2641 60.05 29.6664 59.3625 29.6664H50.3625C49.675 29.6664 49.1125 30.2641 49.1125 30.9946V61.6876H45.375V43.054C45.375 42.3235 44.8125 41.7258 44.125 41.7258H35.125C34.4375 41.7258 33.875 42.3235 33.875 43.054V61.6876H30.125V52.9883C30.125 52.2579 29.5625 51.6602 28.875 51.6602C28.1875 51.6602 27.625 52.2579 27.625 52.9883V61.6876H21.125V32.3227H27.625V41.0219C27.625 41.7524 28.1875 42.35 28.875 42.35C29.5625 42.35 30.125 41.7524 30.125 41.0219V30.9946C30.125 30.2641 29.5625 29.6664 28.875 29.6664H19.875C19.1875 29.6664 18.625 30.2641 18.625 30.9946V61.6876H14.8875V43.054C14.8875 42.3235 14.325 41.7258 13.6375 41.7258H4.6375C3.95 41.7258 3.3875 42.3235 3.3875 43.054V61.6876H1.25C0.5625 61.6876 0 62.2852 0 63.0157C0 63.7461 0.5625 64.3438 1.25 64.3438H62.75C63.4375 64.3438 64 63.7461 64 63.0157C64 62.2852 63.4375 61.6876 62.75 61.6876ZM5.8875 61.6876V44.3821H12.3875V61.6876H5.8875ZM36.375 61.6876V44.3821H42.875V61.6876H36.375ZM51.6125 61.6876V32.3227H58.1125V61.6876H51.6125Z" fill="black" stroke="black" stroke-width="2" stroke-miterlimit="10"/>
<path d="M9.13758 30.0648C12.3126 30.0648 14.8876 27.3289 14.8876 23.9555C14.8876 22.7469 14.5626 21.6313 13.9876 20.6883L21.3001 12.9188C22.1876 13.5164 23.2501 13.875 24.3751 13.875C25.5001 13.875 26.5626 13.5297 27.4501 12.9188L34.7626 20.6883C34.2001 21.6313 33.8626 22.7602 33.8626 23.9688C33.8626 27.3422 36.4376 30.0781 39.6126 30.0781C42.7876 30.0781 45.3626 27.3422 45.3626 23.9688C45.3626 22.7602 45.0376 21.6445 44.4626 20.6883L51.7751 12.9188C52.6626 13.5164 53.7251 13.875 54.8501 13.875C58.0251 13.875 60.6001 11.1391 60.6001 7.76562C60.6001 4.39219 58.0251 1.65625 54.8501 1.65625C51.6751 1.65625 49.1001 4.39219 49.1001 7.76562C49.1001 8.97422 49.4376 10.0898 50.0001 11.0461L42.6876 18.8156C41.8001 18.218 40.7376 17.8594 39.6001 17.8594C38.4626 17.8594 37.4126 18.2047 36.5126 18.8156L29.2001 11.0461C29.7751 10.1031 30.1001 8.97422 30.1001 7.76562C30.1001 4.39219 27.5251 1.65625 24.3501 1.65625C21.1751 1.65625 18.6001 4.39219 18.6001 7.76562C18.6001 8.97422 18.9376 10.0898 19.5001 11.0461L12.1876 18.8156C11.3001 18.2047 10.2376 17.8594 9.10008 17.8594C5.92508 17.8594 3.35008 20.5953 3.35008 23.9688C3.35008 27.3422 5.96258 30.0648 9.13758 30.0648ZM54.8626 4.3125C56.6501 4.3125 58.1126 5.86641 58.1126 7.76562C58.1126 9.66484 56.6501 11.2188 54.8626 11.2188C53.0751 11.2188 51.6126 9.66484 51.6126 7.76562C51.6126 5.86641 53.0751 4.3125 54.8626 4.3125ZM42.8751 23.9688C42.8751 25.868 41.4126 27.4219 39.6251 27.4219C37.8376 27.4219 36.3751 25.868 36.3751 23.9688C36.3751 22.0695 37.8376 20.5156 39.6251 20.5156C41.4126 20.5156 42.8751 22.0562 42.8751 23.9688ZM24.3751 4.3125C26.1626 4.3125 27.6251 5.86641 27.6251 7.76562C27.6251 9.66484 26.1626 11.2188 24.3751 11.2188C22.5876 11.2188 21.1251 9.66484 21.1251 7.76562C21.1251 5.86641 22.5876 4.3125 24.3751 4.3125ZM9.13758 20.5023C10.9251 20.5023 12.3876 22.0562 12.3876 23.9555C12.3876 25.8547 10.9251 27.4086 9.13758 27.4086C7.35008 27.4086 5.88758 25.8547 5.88758 23.9555C5.88758 22.0562 7.33758 20.5023 9.13758 20.5023Z" fill="black" stroke="black" stroke-width="2" stroke-miterlimit="10"/>
<path d="M28.875 45.6836C28.55 45.6836 28.225 45.8297 27.9875 46.0687C27.75 46.3078 27.625 46.6531 27.625 47.0117C27.625 47.357 27.7625 47.7023 27.9875 47.9547C28.2125 48.207 28.5375 48.3398 28.875 48.3398C29.2125 48.3398 29.525 48.1938 29.7625 47.9547C30 47.7156 30.125 47.3703 30.125 47.0117C30.125 46.6531 29.9875 46.3211 29.7625 46.0687C29.5375 45.8164 29.2125 45.6836 28.875 45.6836Z" fill="black" stroke="black" stroke-width="2" stroke-miterlimit="10"/>
</svg>
