<svg width="64" height="68" viewBox="0 0 64 68" fill="none" xmlns="http://www.w3.org/2000/svg">
<g clip-path="url(#clip0_214_8)">
<path d="M24.5 7.96875C23.8125 7.96875 23.25 8.56641 23.25 9.29688C23.25 10.0273 23.8125 10.625 24.5 10.625C25.1875 10.625 25.75 10.0273 25.75 9.29688C25.75 8.56641 25.1875 7.96875 24.5 7.96875Z" fill="black" stroke="black" stroke-width="2" stroke-miterlimit="10"/>
<path d="M31.9999 18.5938C31.3124 18.5938 30.7499 17.9961 30.7499 17.2656C30.7499 16.5352 31.3124 15.9375 31.9999 15.9375C32.4374 15.9375 32.9124 16.1766 33.3499 16.6281C33.8499 17.1328 34.6374 17.1195 35.1124 16.6016C35.5874 16.0703 35.5749 15.2336 35.0874 14.7289C34.4499 14.0781 33.8124 13.7062 33.2499 13.507V11.9531C33.2499 11.2227 32.6874 10.625 31.9999 10.625C31.3124 10.625 30.7499 11.2227 30.7499 11.9531V13.507C29.2999 14.0516 28.2499 15.5258 28.2499 17.2656C28.2499 19.457 29.9374 21.25 31.9999 21.25C32.6874 21.25 33.2499 21.8477 33.2499 22.5781C33.2499 23.3086 32.6874 23.9062 31.9999 23.9062C31.4624 23.9062 30.8874 23.5477 30.3749 22.8969C29.9249 22.3391 29.1374 22.2594 28.6124 22.7375C28.0874 23.2156 28.0124 24.0523 28.4624 24.6102C29.1249 25.4602 29.9124 26.0445 30.7499 26.3367V27.8906C30.7499 28.6211 31.3124 29.2188 31.9999 29.2188C32.6874 29.2188 33.2499 28.6211 33.2499 27.8906V26.3367C34.6999 25.7922 35.7499 24.318 35.7499 22.5781C35.7499 20.3867 34.0624 18.5938 31.9999 18.5938Z" fill="black" stroke="black" stroke-width="2" stroke-miterlimit="10"/>
<path d="M59 19.3906C56.2375 19.3906 54 21.768 54 24.7031V34.1727C52.3375 33.7211 50.5126 34.1859 49.2126 35.5539L40.825 44.4656C39.6501 45.7141 38.9875 47.3875 38.9875 49.1672V56.9766H37.7375C37.05 56.9766 36.4875 57.5742 36.4875 58.3047V66.6719C36.4875 67.4023 37.05 68 37.7375 68H55.2375C55.925 68 56.4875 67.4023 56.4875 66.6719V58.3047C56.4875 57.5742 55.925 56.9766 55.2375 56.9766H53.9875V56.3523C53.9875 56.007 54.125 55.6617 54.35 55.4094L62.15 47.1219C63.3251 45.8734 63.975 44.2 63.975 42.4203V24.7031C64 21.768 61.7625 19.3906 59 19.3906ZM54 65.3438H39V59.6328H54V65.3438ZM61.5 42.4203C61.5 43.4828 61.1125 44.4789 60.4 45.2359L52.6 53.5234C51.9 54.2672 51.5 55.2898 51.5 56.3391V56.9633H41.5V49.1406C41.5 48.0781 41.8875 47.0687 42.6 46.325L50.9875 37.4133C51.925 36.4172 53.4375 36.3773 54.425 37.307C54.4375 37.307 54.4375 37.3203 54.45 37.3203C54.475 37.3469 54.5 37.3734 54.5375 37.4C55.0125 37.9047 55.275 38.5688 55.275 39.2727C55.275 39.9766 55.0125 40.6539 54.5375 41.1453L48.325 47.7461C47.8375 48.2641 47.8375 49.1008 48.325 49.6188C48.8125 50.1367 49.6 50.1367 50.0876 49.6188L56.3 43.018C57.25 42.0086 57.7625 40.6805 57.7625 39.2594C57.7625 37.9578 57.325 36.7227 56.5125 35.7531V24.7031C56.5125 23.2422 57.6375 22.0469 59.0125 22.0469C60.3875 22.0469 61.5125 23.2422 61.5125 24.7031V42.4203H61.5Z" fill="black" stroke="black" stroke-width="2" stroke-miterlimit="10"/>
<path d="M26.25 56.9766H25V49.1539C25 47.3742 24.35 45.7141 23.175 44.4523L14.7875 35.5406C13.5 34.1727 11.6625 33.6945 10 34.1594V24.7031C10 21.768 7.7625 19.3906 5 19.3906C2.2375 19.3906 0 21.768 0 24.7031V42.4203C0 44.2 0.65 45.8602 1.825 47.1219L9.625 55.4094C9.8625 55.6617 9.9875 55.9937 9.9875 56.3523V56.9766H8.75C8.0625 56.9766 7.5 57.5742 7.5 58.3047V66.6719C7.5 67.4023 8.0625 68 8.75 68H26.25C26.9375 68 27.5 67.4023 27.5 66.6719V58.3047C27.5 57.5742 26.9375 56.9766 26.25 56.9766ZM3.6 45.2359C2.8875 44.4789 2.5 43.4828 2.5 42.4203V24.7031C2.5 23.2422 3.625 22.0469 5 22.0469C6.375 22.0469 7.5 23.2422 7.5 24.7031V35.8063C6.6875 36.7758 6.25 38.0109 6.25 39.3125C6.25 40.7336 6.775 42.0617 7.7125 43.0711L13.9625 49.7117C14.45 50.2297 15.2375 50.2297 15.725 49.7117C16.2125 49.1937 16.2125 48.357 15.725 47.8391L9.475 41.1984C9 40.6938 8.7375 40.0297 8.7375 39.3258C8.7375 38.6219 9 37.9445 9.475 37.4531C9.5 37.4266 9.525 37.4 9.5625 37.3734L9.5875 37.3602C10.575 36.4172 12.075 36.4703 13.0125 37.4664L21.4 46.3781C22.1125 47.1352 22.5 48.1312 22.5 49.1937V56.9766H12.5V56.3523C12.5 55.3031 12.1 54.2805 11.4 53.5367L3.6 45.2359ZM25 65.3438H10V59.6328H25V65.3438Z" fill="black" stroke="black" stroke-width="2" stroke-miterlimit="10"/>
<path d="M32 0C21.6625 0 13.25 8.93828 13.25 19.9219C13.25 30.9055 21.6625 39.8438 32 39.8438C42.3375 39.8438 50.75 30.9055 50.75 19.9219C50.75 8.93828 42.3375 0 32 0ZM32 37.1875C23.0375 37.1875 15.75 29.4445 15.75 19.9219C15.75 10.3992 23.0375 2.65625 32 2.65625C40.9625 2.65625 48.25 10.3992 48.25 19.9219C48.25 29.4445 40.9625 37.1875 32 37.1875Z" fill="black" stroke="black" stroke-width="2" stroke-miterlimit="10"/>
<path d="M40.6375 8.55316C37.3875 5.7641 33.125 4.71488 28.9625 5.67113C28.2875 5.8305 27.8625 6.53441 28 7.2516C28.15 7.96879 28.8125 8.42035 29.4875 8.27425C32.9125 7.49066 36.4 8.35394 39.0625 10.6383C41.725 12.8961 43.25 16.2961 43.25 19.9219C43.25 26.5094 38.2 31.875 32 31.875C25.8 31.875 20.75 26.5094 20.75 19.9219C20.75 17.9563 21.2125 16.0039 22.075 14.2774C22.4 13.6266 22.175 12.8297 21.5625 12.4844C20.95 12.1391 20.2 12.3782 19.875 13.0289C18.8125 15.1407 18.25 17.518 18.25 19.9219C18.25 27.9836 24.4125 34.5313 32 34.5313C39.5875 34.5313 45.75 27.9836 45.75 19.9219C45.75 15.486 43.8875 11.3422 40.6375 8.55316Z" fill="black" stroke="black" stroke-width="2" stroke-miterlimit="10"/>
</g>
<defs>
<clipPath id="clip0_214_8">
<path d="M0 0H64V68H0V0Z" fill="white"/>
</clipPath>
</defs>
</svg>
