<svg width="40" height="35" viewBox="0 0 40 35" fill="none" xmlns="http://www.w3.org/2000/svg">
<g clip-path="url(#clip0_48_162)">
<path d="M14.3627 34.4702V30.7659H14.2602C12.8194 33.5857 10.5778 35.0045 7.53565 35.0225C2.51188 35.0225 0 31.8869 0 25.6158V13.0796H2.46435V25.1084C2.46435 27.7665 2.92187 29.7122 3.8369 30.9455C4.75193 32.1788 6.16607 32.7999 8.07932 32.8089C8.93731 32.8274 9.78832 32.65 10.5686 32.2899C11.3488 31.9299 12.0381 31.3966 12.5847 30.73C13.773 29.347 14.3672 27.536 14.3672 25.297V13.0796H16.8271V34.4702H14.3627Z" fill="black"/>
<path d="M38.2442 14.5882C38.0394 14.3211 37.8079 14.0759 37.5535 13.8563C37.2279 15.7922 36.4352 17.6178 35.2451 19.1726C34.4174 20.215 33.3605 21.0493 32.1579 21.6096C30.9553 22.1699 29.6399 22.4408 28.3155 22.4009C27.5716 22.4012 26.8305 22.3077 26.1096 22.1225V23.0969C26.0592 25.0139 26.7513 26.8754 28.0392 28.2874C28.6516 28.9815 29.4084 29.5309 30.2558 29.8964C31.1031 30.262 32.02 30.4347 32.9412 30.4022C33.9381 30.4209 34.9244 30.1934 35.8138 29.7394C36.7033 29.2854 37.4689 28.6189 38.0437 27.798C39.3538 26.0289 40.0089 23.6671 40.0089 20.6767C40 18.095 39.4162 16.0789 38.2442 14.5882ZM35.5214 2.81529C33.9706 0.938443 31.8672 2.05085e-05 29.2112 2.05085e-05C27.5965 -0.0275644 26.0069 0.405138 24.6257 1.24826C23.2834 2.07373 22.2016 3.26651 21.5062 4.68764H21.4037V0.484947H18.975V31.7088H21.4216V18.3733H21.5241C22.6292 20.3894 24.1444 21.6376 26.1096 22.1225V20.3265C26.0876 18.9044 26.4071 17.4979 27.041 16.2271C27.6057 15.0426 28.5048 14.0523 29.6257 13.3804C30.7766 12.6715 32.105 12.31 33.4536 12.3387C34.9634 12.3023 36.43 12.8484 37.5535 13.8653C37.767 12.7559 37.8715 11.6279 37.8654 10.4978C37.8788 7.22452 37.0722 4.68764 35.5214 2.81529Z" fill="black"/>
<path d="M37.5535 13.8563C37.2279 15.7922 36.4352 17.6178 35.2451 19.1726C34.4174 20.215 33.3605 21.0493 32.1579 21.6096C30.9553 22.1699 29.6399 22.4408 28.3155 22.4009C27.5716 22.4012 26.8305 22.3077 26.1096 22.1225V20.3265C26.0876 18.9044 26.4071 17.4979 27.041 16.2271C27.6057 15.0426 28.5048 14.0523 29.6257 13.3804C30.7766 12.6715 32.105 12.31 33.4536 12.3387C34.9622 12.2998 36.4287 12.8426 37.5535 13.8563Z" fill="#4C61AF"/>
</g>
<defs>
<clipPath id="clip0_48_162">
<rect width="40" height="35" fill="white"/>
</clipPath>
</defs>
</svg>
