<svg width="57" height="69" viewBox="0 0 57 69" fill="none" xmlns="http://www.w3.org/2000/svg">
<path d="M28.5001 10.0939C29.4839 10.0939 30.279 10.7543 30.279 11.5764C30.279 12.3176 30.8855 12.924 31.6267 12.924C32.3679 12.924 32.9743 12.3176 32.9743 11.5764C32.9743 9.7166 31.6536 8.12637 29.8478 7.5873V7.41211C29.8478 6.6709 29.2413 6.06445 28.5001 6.06445C27.7589 6.06445 27.1525 6.6709 27.1525 7.41211V7.60078C25.3466 8.13984 24.0259 9.7166 24.0259 11.5898C24.0259 13.8943 26.0339 15.7676 28.5001 15.7676C29.4839 15.7676 30.279 16.4279 30.279 17.25C30.279 18.0721 29.4839 18.7324 28.5001 18.7324C27.5163 18.7324 26.7212 18.0721 26.7212 17.25C26.7212 16.5088 26.1148 15.9023 25.3736 15.9023C24.6323 15.9023 24.0259 16.5088 24.0259 17.25C24.0259 19.1098 25.3466 20.7 27.1525 21.2391V21.4277C27.1525 22.1689 27.7589 22.7754 28.5001 22.7754C29.2413 22.7754 29.8478 22.1689 29.8478 21.4277V21.2391C31.6536 20.7 32.9743 19.1232 32.9743 17.25C32.9743 14.9455 30.9663 13.0723 28.5001 13.0723C27.5163 13.0723 26.7212 12.4119 26.7212 11.5898C26.7212 10.7678 27.5163 10.0939 28.5001 10.0939Z" fill="black" stroke="black" stroke-width="2" stroke-miterlimit="10"/>
<path d="M54.375 36.9527H48.2162C40.2381 36.9527 33.7424 43.4484 33.7424 51.4266V57.0328L29.8477 60.9275V28.7725C37.1654 28.0852 42.9199 21.9129 42.9199 14.4199C42.9199 12.8701 42.6773 11.3338 42.1922 9.87832C41.9631 9.17754 41.1949 8.78672 40.4941 9.0293C39.7934 9.2584 39.4025 10.0266 39.6451 10.7273C40.0359 11.9133 40.2381 13.1531 40.2381 14.4199C40.2381 20.8887 34.9822 26.1445 28.5135 26.1445C22.0447 26.1445 16.7889 20.8887 16.7889 14.4199C16.7889 7.95117 22.0447 2.69531 28.5135 2.69531C29.6994 2.69531 30.8719 2.87051 32.0039 3.2209C32.7182 3.43652 33.4729 3.0457 33.6885 2.33145C33.9041 1.61719 33.5133 0.8625 32.799 0.646875C31.4109 0.215625 29.9555 0 28.5 0C20.5488 0 14.0801 6.46875 14.0801 14.4199C14.0801 21.9129 19.8346 28.0986 27.1523 28.7725V49.2973L23.2576 45.4025V39.7963C23.2576 31.8182 16.7619 25.3225 8.78379 25.3225H2.625C1.88379 25.3225 1.27734 25.9289 1.27734 26.6701V32.8289C1.27734 40.807 7.77305 47.3027 15.7512 47.3027H21.3574L27.1658 53.1111V66.3047H13.6488C12.9076 66.3047 12.3012 66.9111 12.3012 67.6523C12.3012 68.3936 12.9076 69 13.6488 69H43.3377C44.0789 69 44.6854 68.3936 44.6854 67.6523C44.6854 66.9111 44.0789 66.3047 43.3377 66.3047H29.8477V64.7414L35.6561 58.933H41.2623C49.2404 58.933 55.7361 52.4373 55.7361 44.4592V38.3004C55.7227 37.5592 55.1162 36.9527 54.375 36.9527ZM15.7512 44.6209C9.25547 44.6209 3.97266 39.3381 3.97266 32.8424V28.0312H8.78379C15.2795 28.0312 20.5623 33.3141 20.5623 39.8098V42.7207L14.6057 36.7641C14.0801 36.2385 13.2311 36.2385 12.7055 36.7641C12.1799 37.2896 12.1799 38.1387 12.7055 38.6643L18.6621 44.6209H15.7512ZM53.0273 44.4592C53.0273 50.9549 47.7445 56.2377 41.2488 56.2377H38.3379L44.2945 50.2811C44.8201 49.7555 44.8201 48.9064 44.2945 48.3809C43.7689 47.8553 42.9199 47.8553 42.3943 48.3809L36.4377 54.3375V51.4266C36.4377 44.9309 41.7205 39.648 48.2162 39.648H53.0273V44.4592Z" fill="black" stroke="black" stroke-width="2" stroke-miterlimit="10"/>
<path d="M37.7178 6.49573C38.0682 6.49573 38.4186 6.34749 38.6747 6.10491C38.9307 5.84885 39.0655 5.51194 39.0655 5.14807C39.0655 4.79768 38.9172 4.44729 38.6747 4.19124C38.4321 3.93518 38.0817 3.80042 37.7178 3.80042C37.354 3.80042 37.017 3.94866 36.761 4.19124C36.5049 4.44729 36.3702 4.7842 36.3702 5.14807C36.3702 5.49846 36.5184 5.84885 36.761 6.10491C37.017 6.34749 37.3674 6.49573 37.7178 6.49573Z" fill="black" stroke="black" stroke-width="2" stroke-miterlimit="10"/>
</svg>
