<svg width="56" height="69" viewBox="0 0 56 69" fill="none" xmlns="http://www.w3.org/2000/svg">
<path d="M50.948 38.26L40.6519 22.1151C42.1073 21.3469 43.1046 19.8106 43.1046 18.0586C43.1046 16.1315 41.9052 14.4738 40.2206 13.8L43.3472 2.884C43.482 2.41232 43.3472 1.90021 43.0103 1.5633C40.9349 -0.512093 37.5523 -0.512093 35.4769 1.5633C34.9782 2.06193 34.3179 2.33146 33.6171 2.33146C32.9163 2.33146 32.256 2.06193 31.7573 1.5633C29.682 -0.512093 26.3128 -0.512093 24.2374 1.54982L24.197 1.59025C23.1728 2.61447 21.5017 2.60099 20.4909 1.59025L20.4775 1.57677C18.4021 -0.498617 15.0195 -0.498617 12.9441 1.57677C12.5937 1.92716 12.4724 2.4258 12.6071 2.89748L15.7337 13.8C14.0357 14.4738 12.8362 16.1315 12.8362 18.0586C12.8362 19.824 13.8335 21.3469 15.289 22.1151L4.99289 38.26C1.00383 44.5131 0.747771 52.1274 4.30558 58.6231C7.8634 65.1188 14.4265 69 21.8251 69H34.0888C41.5009 69 48.0505 65.1188 51.6083 58.6231C55.1931 52.1274 54.937 44.5131 50.948 38.26ZM18.5638 3.47697C20.6392 5.55236 24.0083 5.56584 26.0972 3.50392L26.1376 3.46349C27.1618 2.43927 28.8329 2.45275 29.8571 3.47697C31.9325 5.55236 35.3152 5.55236 37.3905 3.47697C38.2396 2.62795 39.5198 2.4797 40.5171 3.03224L37.5118 13.4766H18.429L15.4372 3.01877C16.4345 2.4797 17.7148 2.62795 18.5638 3.47697ZM49.2634 57.3293C46.1773 62.949 40.5171 66.3047 34.1023 66.3047H21.8386C15.4237 66.3047 9.76359 62.949 6.67746 57.3293C3.59133 51.7096 3.80695 45.1195 7.25695 39.7154L18.146 22.6406H21.906C22.6472 22.6406 23.2536 22.0342 23.2536 21.293C23.2536 20.5518 22.6472 19.9453 21.906 19.9453H17.4183C16.3806 19.9453 15.5316 19.0963 15.5316 18.0586C15.5316 17.0209 16.3806 16.1719 17.4183 16.1719H38.5226C39.5603 16.1719 40.4093 17.0209 40.4093 18.0586C40.4093 19.0963 39.5603 19.9453 38.5226 19.9453H34.0349C33.2937 19.9453 32.6872 20.5518 32.6872 21.293C32.6872 22.0342 33.2937 22.6406 34.0349 22.6406H37.7948L48.6839 39.7154C52.1339 45.1195 52.3495 51.7096 49.2634 57.3293Z" fill="black" stroke="black" stroke-width="2" stroke-miterlimit="10"/>
<path d="M30.3423 44.0144C30.0054 43.8931 29.655 43.7719 29.3181 43.6371V37.5322C30.2345 37.8017 30.8409 38.233 30.8679 38.2599C31.4609 38.7047 32.2964 38.5834 32.7546 37.9904C33.1993 37.3974 33.0915 36.5484 32.4986 36.1037C32.4177 36.0498 31.1644 35.1199 29.3316 34.756V33.4084C29.3316 32.6672 28.7251 32.0607 27.9839 32.0607C27.2427 32.0607 26.6363 32.6672 26.6363 33.4084V34.7426C26.4072 34.783 26.1781 34.8369 25.9355 34.9178C24.0353 35.4838 22.6202 37.1144 22.2294 39.1494C21.879 41.0092 22.472 42.815 23.7927 43.8392C24.507 44.3918 25.3964 44.9039 26.6228 45.4564V53.2728C25.5581 53.2054 24.8573 52.9629 23.6714 52.1947C23.0515 51.7904 22.2159 51.9656 21.8116 52.5855C21.4073 53.2055 21.5825 54.041 22.2025 54.4453C23.9275 55.5773 25.0999 55.9008 26.6363 55.9681V57.3562C26.6363 58.0974 27.2427 58.7039 27.9839 58.7039C28.7251 58.7039 29.3316 58.0974 29.3316 57.3562V55.8199C32.2156 55.1865 33.9001 52.7742 34.2909 50.5236C34.7626 47.5857 33.2263 45.0252 30.3423 44.0144ZM25.4503 41.7234C24.9382 41.3191 24.7091 40.524 24.8708 39.648C25.0191 38.8529 25.5581 37.8826 26.6228 37.5187V42.4512C26.1781 42.2355 25.7738 41.9795 25.4503 41.7234ZM31.6091 50.0924C31.4204 51.2513 30.6388 52.4777 29.3181 53.0168V46.5211C29.3585 46.5346 29.3989 46.548 29.4529 46.5615C31.8652 47.4105 31.7169 49.4724 31.6091 50.0924Z" fill="black" stroke="black" stroke-width="2" stroke-miterlimit="10"/>
<path d="M27.9704 22.6406C28.3208 22.6406 28.6712 22.4924 28.9272 22.2498C29.1833 22.0072 29.3181 21.6568 29.3181 21.293C29.3181 20.9291 29.1698 20.5922 28.9272 20.3361C28.6712 20.0801 28.3343 19.9453 27.9704 19.9453C27.6065 19.9453 27.2696 20.0936 27.0136 20.3361C26.7575 20.5922 26.6227 20.9291 26.6227 21.293C26.6227 21.6568 26.771 21.9938 27.0136 22.2498C27.2696 22.4924 27.62 22.6406 27.9704 22.6406Z" fill="black" stroke="black" stroke-width="2" stroke-miterlimit="10"/>
</svg>
