<svg width="69" height="69" viewBox="0 0 69 69" fill="none" xmlns="http://www.w3.org/2000/svg">
<path d="M51.75 23.7188C44.6074 23.7188 38.8125 29.5137 38.8125 36.6562C38.8125 43.7988 44.6074 49.5938 51.75 49.5938C58.8926 49.5938 64.6875 43.7988 64.6875 36.6562C64.674 29.5137 58.8926 23.7322 51.75 23.7188ZM51.75 47.4375C45.7934 47.4375 40.9688 42.6129 40.9688 36.6562C40.9688 30.6996 45.7934 25.875 51.75 25.875C57.7066 25.875 62.5312 30.6996 62.5312 36.6562C62.5178 42.6129 57.7066 47.424 51.75 47.4375Z" fill="black" stroke="black" stroke-width="2" stroke-miterlimit="10"/>
<path d="M51.75 33.4219H53.9062C54.4992 33.4219 54.9844 32.9367 54.9844 32.3438C54.9844 31.7508 54.4992 31.2656 53.9062 31.2656H52.8281V30.1875C52.8281 29.5945 52.343 29.1094 51.75 29.1094C51.157 29.1094 50.6719 29.5945 50.6719 30.1875V31.4543C48.9873 32.0473 48.1113 33.8936 48.7043 35.5781C49.1625 36.8719 50.3889 37.7344 51.75 37.7344C52.343 37.7344 52.8281 38.2195 52.8281 38.8125C52.8281 39.4055 52.343 39.8906 51.75 39.8906H49.5938C49.0008 39.8906 48.5156 40.3758 48.5156 40.9688C48.5156 41.5617 49.0008 42.0469 49.5938 42.0469H50.6719V43.125C50.6719 43.718 51.157 44.2031 51.75 44.2031C52.343 44.2031 52.8281 43.718 52.8281 43.125V41.8582C54.5127 41.2652 55.3887 39.4189 54.7957 37.7344C54.3375 36.4406 53.1111 35.5781 51.75 35.5781C51.157 35.5781 50.6719 35.093 50.6719 34.5C50.6719 33.907 51.157 33.4219 51.75 33.4219Z" fill="black" stroke="black" stroke-width="2" stroke-miterlimit="10"/>
<path d="M61.8439 50.308L39.9984 56.0086L35.1199 54.0545L37.8152 53.3807C39.702 52.909 40.8475 50.9953 40.3758 49.1086C39.9715 47.4779 38.4621 46.3594 36.7775 46.4537L18.3551 47.4375H14.0156V46.3594C14.0156 45.7664 13.5305 45.2813 12.9375 45.2813H5.83535L13.3822 37.7344H21.5625C21.8455 37.7344 22.1285 37.6266 22.3307 37.4244L38.1791 21.5625H47.4375C47.7205 21.5625 48.0035 21.4547 48.2057 21.2525L63.6094 5.83535V9.70313C63.6094 10.2961 64.0945 10.7813 64.6875 10.7813C65.2805 10.7813 65.7656 10.2961 65.7656 9.70313V3.23438C65.7656 2.64141 65.2805 2.15625 64.6875 2.15625H58.2187C57.6258 2.15625 57.1406 2.64141 57.1406 3.23438C57.1406 3.82734 57.6258 4.3125 58.2187 4.3125H62.0865L46.9928 19.4063H37.7344C37.4514 19.4063 37.1684 19.5141 36.9662 19.7162L21.1178 35.5781H12.9375C12.6545 35.5781 12.3715 35.6859 12.1693 35.8881L2.46621 45.5912C2.26406 45.7934 2.15625 46.0629 2.15625 46.3594V65.7656C2.15625 66.3586 2.64141 66.8438 3.23437 66.8438H12.9375C13.5305 66.8438 14.0156 66.3586 14.0156 65.7656V64.5393L20.4844 63.6229L38.6103 67.8949C38.826 67.9488 39.0416 67.9354 39.2437 67.8545L64.3775 58.1918C66.5068 57.3697 67.5715 54.9709 66.7629 52.8416C66.0082 50.8606 63.8924 49.7824 61.8439 50.308ZM11.8594 64.6875H4.3125V47.4375H11.8594V64.6875ZM18.4359 49.5938L36.9123 48.61C37.667 48.5695 38.3004 49.149 38.3408 49.9037C38.3543 50.1732 38.2869 50.4428 38.1521 50.6719C37.9635 50.9818 37.667 51.2109 37.3166 51.2918L26.6971 53.9332C26.1176 54.068 25.7672 54.6609 25.902 55.2404C26.0367 55.8199 26.6297 56.1703 27.2092 56.0356H27.2227L31.5621 54.9574L39.5402 58.1514C39.7559 58.2322 39.985 58.2457 40.2141 58.1918L62.3965 52.3969C63.4611 52.1273 64.5392 52.7607 64.8223 53.8254C65.0783 54.7957 64.5527 55.8064 63.6094 56.1703L38.7855 65.7117L20.7809 61.4801C20.6461 61.4531 20.5113 61.4397 20.3766 61.4666L14.0156 62.3695V49.5938H18.4359Z" fill="black" stroke="black" stroke-width="2" stroke-miterlimit="10"/>
</svg>
