<svg width="116" height="116" viewBox="0 0 116 116" fill="none" xmlns="http://www.w3.org/2000/svg">
<path d="M102.452 55.0547L102.134 54.4883L111.763 44.8594C113.304 43.3187 114.165 41.2344 114.165 39.0594C114.165 34.5281 110.472 30.8352 105.941 30.8352C105.012 30.8352 104.128 31.0164 103.29 31.3109V7.25C103.29 4.25938 100.843 1.8125 97.8523 1.8125H41.3703C39.9203 1.8125 38.5609 2.37891 37.5188 3.39844L21.5234 19.4164C20.5039 20.4359 19.9375 21.818 19.9375 23.268V27.3008C9.7875 28.207 1.8125 36.7484 1.8125 47.125V105.125C1.8125 110.132 5.86797 114.188 10.875 114.188H32.625C37.632 114.188 41.6875 110.132 41.6875 105.125V103.312H85.1875H87H112.692L108.75 79.5688C108.705 71.0273 106.552 62.5539 102.452 55.0547ZM105.08 78.368L87.4078 83.1938L83.1484 79.7953C80.9961 78.0734 79.75 75.4906 79.75 72.7266V58V56.1875C81.7438 56.1875 83.375 57.8187 83.375 59.8125V72.5H87V69.6227L99.4609 57.1617C102.95 63.6867 104.876 70.982 105.08 78.368ZM79.75 52.5625C77.7562 52.5625 76.125 54.1937 76.125 56.1875V58C76.125 58.9969 75.3094 59.8125 74.3125 59.8125C73.3156 59.8125 72.5 58.9969 72.5 58V56.1875C72.5 52.2 75.7625 48.9375 79.75 48.9375H84.4398L80.7242 52.6531C80.3844 52.6078 80.0898 52.5625 79.75 52.5625ZM59.9031 83.5109L62.282 77.5523L67.4477 82.718L61.4891 85.0969C60.7188 85.4141 59.8125 84.7797 59.8125 83.9641C59.8125 83.8055 59.8352 83.6469 59.9031 83.5109ZM70.6875 80.8148L64.1852 74.3125L75.1508 63.3469C75.4906 63.3016 75.8078 63.2109 76.125 63.0977V72.7039C76.125 73.5195 76.2156 74.3352 76.3742 75.1281L70.6875 80.8148ZM69.2148 59.8125H48.9375V52.5625H69.5094C69.1016 53.6953 68.875 54.9188 68.875 56.1875V58C68.875 58.6344 69.0109 59.2461 69.2148 59.8125ZM48.9375 63.4375H69.9398L62.6898 70.6875H48.9375V63.4375ZM48.9375 74.3125H59.6766L56.7766 81.5625H48.9375V74.3125ZM48.9375 85.1875H56.3688C56.9125 87.2719 58.793 88.8125 61.0359 88.8125C61.6477 88.8125 62.2594 88.6992 62.8484 88.4727L67.0625 86.7734V92.4375H48.9375V85.1875ZM70.6875 85.3234L71.707 84.9156L77.7336 78.8891C77.8016 79.0023 77.8695 79.1156 77.9375 79.2516V92.4375H70.6875V85.3234ZM81.5625 83.1484L85.1875 86.0484V92.4375H81.5625V83.1484ZM110.562 39.0367C110.562 40.2602 110.087 41.4156 109.226 42.2766L87 64.5023V59.8125C87 57.5469 85.9352 55.5305 84.2812 54.2164L102.701 35.7969C103.562 34.9359 104.717 34.4602 105.941 34.4602C108.501 34.4375 110.562 36.4992 110.562 39.0367ZM38.0625 7.99766V18.125C38.0625 19.1219 37.2469 19.9375 36.25 19.9375H26.1227L38.0625 7.99766ZM21.75 30.8125C30.7445 30.8125 38.0625 38.1305 38.0625 47.125C38.0625 56.1195 30.7445 63.4375 21.75 63.4375C12.7555 63.4375 5.4375 56.1195 5.4375 47.125C5.4375 38.1305 12.7555 30.8125 21.75 30.8125ZM12.6875 64.8648C15.4062 66.2695 18.4875 67.0625 21.75 67.0625C25.0125 67.0625 28.0938 66.2469 30.8125 64.8648V74.3125H12.6875V64.8648ZM32.625 110.562H10.875C7.88438 110.562 5.4375 108.116 5.4375 105.125V58.5437C6.47969 60.0164 7.68047 61.3531 9.0625 62.4859V74.3125C9.0625 76.3063 10.6938 77.9375 12.6875 77.9375H30.8125C32.8062 77.9375 34.4375 76.3063 34.4375 74.3125V62.4859C35.8195 61.3531 37.0203 60.0164 38.0625 58.5437V105.125C38.0625 108.116 35.6156 110.562 32.625 110.562ZM41.6875 99.6875V47.125C41.6875 36.7484 33.7125 28.207 23.5625 27.2781V23.5625H36.25C39.2406 23.5625 41.6875 21.1156 41.6875 18.125V5.4375H97.875C98.8719 5.4375 99.6875 6.25313 99.6875 7.25V33.6898L88.0648 45.3125H79.75C76.5328 45.3125 73.6555 46.7172 71.6617 48.9375H45.3125V96.0625H85.1875V99.6875H41.6875ZM88.8125 99.6875V86.5695L105.488 82.0156L108.433 99.6875H88.8125Z" fill="black" stroke="black" stroke-width="2" stroke-miterlimit="10"/>
<path d="M19.9375 55.9156V59.8125H23.5625V55.9156C25.6469 55.2586 27.1875 53.3102 27.1875 50.9992C27.1875 49.0281 26.1 47.2609 24.3328 46.3773L20.7984 44.6328C20.2773 44.3609 19.9375 43.8398 19.9375 43.2508C19.9375 42.3898 20.6398 41.7102 21.4781 41.7102H21.9992C22.8602 41.7102 23.5398 42.4125 23.5398 43.2508V45.3352H27.1648V43.2508C27.1648 40.9398 25.6242 39.0141 23.5398 38.3344V34.4375H19.9375V38.3344C17.8531 38.9914 16.3125 40.9398 16.3125 43.2508C16.3125 45.2219 17.4 46.9891 19.1672 47.8727L22.7016 49.6398C23.2227 49.9117 23.5625 50.4328 23.5625 51.0219C23.5625 51.8828 22.8602 52.5625 22.0219 52.5625H21.5008C20.6398 52.5625 19.9602 51.8602 19.9602 51.0219V48.9375H16.3125V51.0219C16.3125 53.3328 17.8531 55.2586 19.9375 55.9156Z" fill="black" stroke="black" stroke-width="2" stroke-miterlimit="10"/>
<path d="M30.8125 81.5625H12.6875C10.6937 81.5625 9.0625 83.1937 9.0625 85.1875V103.312C9.0625 105.306 10.6937 106.938 12.6875 106.938H30.8125C32.8062 106.938 34.4375 105.306 34.4375 103.312V85.1875C34.4375 83.1937 32.8062 81.5625 30.8125 81.5625ZM30.8125 88.8125H27.1875V85.1875H30.8125V88.8125ZM23.5625 103.312H19.9375V99.6875H23.5625V103.312ZM23.5625 96.0625H19.9375V92.4375H23.5625V96.0625ZM16.3125 96.0625H12.6875V92.4375H16.3125V96.0625ZM19.9375 88.8125V85.1875H23.5625V88.8125H19.9375ZM16.3125 85.1875V88.8125H12.6875V85.1875H16.3125ZM12.6875 99.6875H16.3125V103.312H12.6875V99.6875ZM27.1875 103.312V92.4375H30.8125V103.312H27.1875Z" fill="black" stroke="black" stroke-width="2" stroke-miterlimit="10"/>
<path d="M96.0625 9.0625H45.3125V19.9375H96.0625V9.0625ZM92.4375 16.3125H48.9375V12.6875H92.4375V16.3125Z" fill="black" stroke="black" stroke-width="2" stroke-miterlimit="10"/>
<path d="M45.3125 23.5625H96.0625V27.1875H45.3125V23.5625Z" fill="black" stroke="black" stroke-width="2" stroke-miterlimit="10"/>
<path d="M45.3125 30.8125H96.0625V34.4375H45.3125V30.8125Z" fill="black" stroke="black" stroke-width="2" stroke-miterlimit="10"/>
<path d="M45.3125 38.0625H74.3125V41.6875H45.3125V38.0625Z" fill="black" stroke="black" stroke-width="2" stroke-miterlimit="10"/>
</svg>
