<svg width="116" height="116" viewBox="0 0 116 116" fill="none" xmlns="http://www.w3.org/2000/svg">
<g clip-path="url(#clip0_3_171)">
<path d="M58 23.9023C39.1953 23.9023 23.9023 39.1953 23.9023 58C23.9023 76.8047 39.1953 92.0977 58 92.0977C76.8047 92.0977 92.0977 76.8047 92.0977 58C92.0977 39.1953 76.8047 23.9023 58 23.9023ZM60.6055 69.4867V72.9984H56.1422V69.6453C52.9703 69.4641 49.9117 68.6031 48.0086 67.425L50.4102 61.9875C52.4945 63.2109 55.2812 64.0039 57.7055 64.0039C59.8125 64.0039 60.5828 63.5508 60.5828 62.8031C60.5828 60.0164 48.3484 62.2594 48.3484 54.0125C48.3484 50.4328 50.9312 47.4422 56.1195 46.7172V43.2734H60.5828V46.6719C62.9164 46.8984 65.2047 47.4875 66.9945 48.507L64.7516 53.9219C62.5766 52.8117 60.5148 52.268 58.5891 52.268C56.4141 52.268 55.7117 52.9023 55.7117 53.65C55.7117 56.3008 67.9461 54.1031 67.9461 62.2594C67.9688 65.6578 65.4992 68.6484 60.6055 69.4867Z" fill="black" stroke="black" stroke-width="2" stroke-miterlimit="10"/>
<path d="M115.66 51.7014L108.909 52.4491C110.177 63.8905 107.459 75.5811 101.296 85.3686C95.0203 95.292 85.4367 102.814 74.2898 106.552C68.9203 108.342 63.4375 109.203 58 109.203C42.3219 109.203 27.0969 102.066 17.2641 89.5826H23.993V82.7858H5.79999V101.817H12.5969V94.6576C19.0766 102.565 27.6859 108.705 37.4281 112.352C44.0211 114.799 50.9766 116.045 57.932 116.045C64.1852 116.045 70.4383 115.048 76.3969 113.055C89.0391 108.818 99.8914 100.299 107.005 89.0389C114.029 77.9147 117.088 64.6608 115.66 51.7014Z" fill="black" stroke="black" stroke-width="2" stroke-miterlimit="10"/>
<path d="M14.5 31.0617C20.7758 20.9343 30.45 13.2765 41.7555 9.49293C52.7664 5.79996 64.3437 5.91324 75.2641 9.83278C83.7828 12.8914 91.3726 18.1929 97.1726 25.0351H90.6929V31.832H109.09V13.6617H102.293V20.5265C95.7453 12.8234 87.1812 6.86481 77.575 3.42106C65.182 -0.996913 52.064 -1.13285 39.5805 3.0359C26.7797 7.34059 15.814 16.0179 8.69999 27.482C1.69921 38.8101 -1.22345 52.2679 0.475767 65.4086L7.22733 64.5476C5.70936 52.9476 8.29217 41.0531 14.5 31.0617Z" fill="black" stroke="black" stroke-width="2" stroke-miterlimit="10"/>
</g>
<defs>
<clipPath id="clip0_3_171">
<rect width="116" height="116" fill="white"/>
</clipPath>
</defs>
</svg>
