<svg width="116" height="116" viewBox="0 0 116 116" fill="none" xmlns="http://www.w3.org/2000/svg">
<g clip-path="url(#clip0_225_259)">
<path d="M113.734 106.938H109.86V54.579C109.86 53.3329 108.841 52.3134 107.595 52.3134H91.282C90.0359 52.3134 89.0164 53.3329 89.0164 54.579V106.938H82.2422V75.1509C82.2422 73.9048 81.2227 72.8852 79.9766 72.8852H63.6641C62.418 72.8852 61.3984 73.9048 61.3984 75.1509V106.938H54.6016V92.0977C54.6016 90.8516 53.582 89.8321 52.3359 89.8321C51.0898 89.8321 50.0703 90.8516 50.0703 92.0977V106.938H38.2891V56.8446H50.0703V71.6845C50.0703 72.9305 51.0898 73.9501 52.3359 73.9501C53.582 73.9501 54.6016 72.9305 54.6016 71.6845V54.579C54.6016 53.3329 53.582 52.3134 52.3359 52.3134H36.0234C34.7773 52.3134 33.7578 53.3329 33.7578 54.579V106.938H26.9836V75.1509C26.9836 73.9048 25.9641 72.8852 24.718 72.8852H8.40547C7.15937 72.8852 6.13984 73.9048 6.13984 75.1509V106.938H2.26562C1.01953 106.938 0 107.957 0 109.203C0 110.449 1.01953 111.469 2.26562 111.469H113.734C114.98 111.469 116 110.449 116 109.203C116 107.957 114.98 106.938 113.734 106.938ZM10.6711 106.938V77.4165H22.4523V106.938H10.6711ZM65.9297 106.938V77.4165H77.7109V106.938H65.9297ZM93.5477 106.938V56.8446H105.329V106.938H93.5477Z" fill="black" stroke="black" stroke-width="2" stroke-miterlimit="10"/>
<path d="M16.5618 52.993C22.3165 52.993 26.9837 48.3258 26.9837 42.5711C26.9837 40.5094 26.3946 38.6063 25.3524 36.9977L38.6063 23.7438C40.2149 24.7633 42.1407 25.375 44.1798 25.375C46.2188 25.375 48.1446 24.7859 49.7532 23.7438L63.0071 36.9977C61.9876 38.6063 61.3759 40.532 61.3759 42.5938C61.3759 48.3484 66.0431 53.0156 71.7977 53.0156C77.5524 53.0156 82.2196 48.3484 82.2196 42.5938C82.2196 40.532 81.6306 38.6289 80.5884 36.9977L93.8423 23.7438C95.4509 24.7633 97.3766 25.375 99.4157 25.375C105.17 25.375 109.838 20.7078 109.838 14.9531C109.838 9.19844 105.17 4.53125 99.4157 4.53125C93.661 4.53125 88.9938 9.19844 88.9938 14.9531C88.9938 17.0148 89.6056 18.918 90.6251 20.5492L77.3712 33.8031C75.7626 32.7836 73.8368 32.1719 71.7751 32.1719C69.7134 32.1719 67.8102 32.7609 66.179 33.8031L52.9251 20.5492C53.9673 18.9406 54.5563 17.0148 54.5563 14.9531C54.5563 9.19844 49.8891 4.53125 44.1345 4.53125C38.3798 4.53125 33.7126 9.19844 33.7126 14.9531C33.7126 17.0148 34.3243 18.918 35.3438 20.5492L22.0899 33.8031C20.4813 32.7609 18.5556 32.1719 16.4938 32.1719C10.7391 32.1719 6.07196 36.8391 6.07196 42.5938C6.07196 48.3484 10.8071 52.993 16.5618 52.993ZM99.4384 9.0625C102.678 9.0625 105.329 11.7133 105.329 14.9531C105.329 18.193 102.678 20.8438 99.4384 20.8438C96.1985 20.8438 93.5477 18.193 93.5477 14.9531C93.5477 11.7133 96.1985 9.0625 99.4384 9.0625ZM77.711 42.5938C77.711 45.8336 75.0602 48.4844 71.8204 48.4844C68.5806 48.4844 65.9298 45.8336 65.9298 42.5938C65.9298 39.3539 68.5806 36.7031 71.8204 36.7031C75.0602 36.7031 77.711 39.3312 77.711 42.5938ZM44.1798 9.0625C47.4196 9.0625 50.0704 11.7133 50.0704 14.9531C50.0704 18.193 47.4196 20.8438 44.1798 20.8438C40.9399 20.8438 38.2891 18.193 38.2891 14.9531C38.2891 11.7133 40.9399 9.0625 44.1798 9.0625ZM16.5618 36.6805C19.8016 36.6805 22.4524 39.3312 22.4524 42.5711C22.4524 45.8109 19.8016 48.4617 16.5618 48.4617C13.322 48.4617 10.6712 45.8109 10.6712 42.5711C10.6712 39.3312 13.2993 36.6805 16.5618 36.6805Z" fill="black" stroke="black" stroke-width="2" stroke-miterlimit="10"/>
<path d="M52.3359 79.6367C51.7469 79.6367 51.1578 79.8859 50.7273 80.2937C50.2969 80.7016 50.0703 81.2906 50.0703 81.9023C50.0703 82.4914 50.3195 83.0805 50.7273 83.5109C51.1352 83.9414 51.7242 84.168 52.3359 84.168C52.9477 84.168 53.5141 83.9188 53.9445 83.5109C54.375 83.1031 54.6016 82.5141 54.6016 81.9023C54.6016 81.2906 54.3523 80.7242 53.9445 80.2937C53.5367 79.8633 52.9477 79.6367 52.3359 79.6367Z" fill="black" stroke="black" stroke-width="2" stroke-miterlimit="10"/>
</g>
<defs>
<clipPath id="clip0_225_259">
<path d="M0 0H116V116H0V0Z" fill="white"/>
</clipPath>
</defs>
</svg>
