<svg width="116" height="116" viewBox="0 0 116 116" fill="none" xmlns="http://www.w3.org/2000/svg">
<g clip-path="url(#clip0_225_275)">
<path d="M58.0001 69.6C55.8734 69.6 54.1334 67.86 54.1334 65.7333C54.1334 63.6067 55.8734 61.8667 58.0001 61.8667C60.1267 61.8667 61.8667 63.6067 61.8667 65.7333H65.7334C65.7092 62.2292 63.3409 59.16 59.9334 58.2658V56.0667H56.0667V58.2658C51.9343 59.3292 49.4451 63.5342 50.5084 67.6667C51.3784 71.0742 54.4717 73.4667 58.0001 73.4667C60.1267 73.4667 61.8667 75.2067 61.8667 77.3333C61.8667 79.46 60.1267 81.2 58.0001 81.2C55.8734 81.2 54.1334 79.46 54.1334 77.3333H50.2668C50.2909 80.8375 52.6593 83.9067 56.0667 84.8008V87H59.9334V84.8008C64.0659 83.7375 66.5551 79.5325 65.4917 75.4C64.6217 71.9925 61.5284 69.6 58.0001 69.6Z" fill="black" stroke="black" stroke-width="2" stroke-miterlimit="10"/>
<path d="M58 46.4C44.1283 46.4 32.8666 57.6617 32.8666 71.5333C32.8666 85.405 44.1283 96.6667 58 96.6667C71.8716 96.6667 83.1333 85.405 83.1333 71.5333C83.1333 57.6617 71.8716 46.4242 58 46.4ZM58 92.8C46.255 92.8 36.7333 83.2783 36.7333 71.5333C36.7333 59.7884 46.255 50.2667 58 50.2667C69.745 50.2667 79.2666 59.7884 79.2666 71.5333C79.2666 83.2783 69.745 92.8 58 92.8Z" fill="black" stroke="black" stroke-width="2" stroke-miterlimit="10"/>
<path d="M114.067 42.5335C115.13 42.5335 116 41.6635 116 40.6002V32.8669C116 32.8427 115.976 32.8185 115.976 32.7943C115.976 32.5769 115.927 32.3835 115.855 32.166C115.855 32.1419 115.855 32.1177 115.831 32.0935C115.734 31.876 115.613 31.6827 115.444 31.5135C115.396 31.4652 115.323 31.4169 115.275 31.3685C115.178 31.296 115.106 31.2235 114.985 31.151L58.9425 0.241851C58.3625 -0.0723161 57.6617 -0.0723161 57.0817 0.241851L1.015 31.1752C0.918333 31.2477 0.821667 31.3202 0.725 31.3927C0.6525 31.441 0.604167 31.4894 0.555833 31.5377C0.386667 31.7069 0.265833 31.9002 0.169167 32.1177C0.169167 32.1418 0.169167 32.166 0.145 32.1902C0.0725 32.3835 0.0241667 32.601 0.0241667 32.8185C0.0241667 32.8427 0 32.8669 0 32.891V40.6244C0 41.6877 0.87 42.5577 1.93333 42.5577H7.73333V100.558H1.93333C0.87 100.558 0 101.428 0 102.491V114.091C0 115.154 0.87 116.024 1.93333 116.024H114.067C115.13 116.024 116 115.154 116 114.091V102.491C116 101.428 115.13 100.558 114.067 100.558H108.267V42.5335H114.067ZM58 4.15685L106.575 30.9335H9.44917L58 4.15685ZM112.133 104.4V112.134H3.86667V104.4H112.133ZM11.6 100.534V42.5335H19.3333V100.534H11.6ZM23.2 100.534V42.5335H92.8V100.534H23.2ZM96.6667 100.534V42.5335H104.4V100.534H96.6667ZM3.86667 38.6669V34.8002H112.133V38.6669H3.86667Z" fill="black" stroke="black" stroke-width="2" stroke-miterlimit="10"/>
</g>
<defs>
<clipPath id="clip0_225_275">
<rect width="116" height="116" fill="white"/>
</clipPath>
</defs>
</svg>
