<svg width="116" height="116" viewBox="0 0 116 116" fill="none" xmlns="http://www.w3.org/2000/svg">
<g clip-path="url(#clip0_225_137)">
<path d="M113.253 54.277C111.528 52.6653 109.144 51.6892 106.783 51.553C104.082 51.4168 101.54 52.3702 99.6554 54.277L86.7615 67.0348C86.5118 66.6035 86.2167 66.1721 85.8989 65.7862C84.3098 63.9021 81.9944 62.8579 79.3611 62.8579H61.2914C57.8863 62.8579 54.5721 62.4265 51.4167 61.5412C43.2218 59.2712 35.3901 60.9283 28.7615 66.3311C26.0601 68.533 24.1079 70.9166 22.8593 72.6645L19.6131 69.5318C19.1818 69.1232 18.6143 68.8735 18.0241 68.8735C18.0241 68.8735 18.0241 68.8735 18.0014 68.8735C17.3885 68.8735 16.7983 69.1232 16.367 69.5772L0.635444 85.9217C0.204133 86.353 -0.0228728 86.9432 -0.000172185 87.5561C0.0225284 88.169 0.272235 88.7365 0.703546 89.1678L27.3313 114.524C27.7627 114.956 28.3302 115.16 28.8977 115.16C29.4879 115.16 30.0781 114.933 30.5321 114.479L46.1274 98.4751C46.5587 98.0438 46.7858 97.4309 46.7858 96.8407C46.7631 96.2277 46.5133 95.6602 46.082 95.2289L44.72 93.9123L47.83 93.5718C49.7141 93.3448 51.621 93.2313 53.5051 93.2313H80.9728C85.4449 93.2313 89.2359 92.2551 92.2323 90.3256C92.255 90.3029 92.2777 90.3029 92.3004 90.2802C93.3901 89.5311 94.3662 88.6457 95.2061 87.6469L113.73 65.877C116.931 62.1314 116.726 57.4778 113.253 54.277ZM28.8296 109.666L5.51607 87.4426L18.0695 74.3898L41.2468 96.886L28.8296 109.666ZM110.279 62.9033L91.7556 84.6731C91.1654 85.3541 90.4844 85.9898 89.758 86.4892C87.4879 87.9193 84.5368 88.6457 80.9728 88.6457H53.5051C51.4394 88.6457 49.3509 88.7592 47.3079 89.0089L40.475 89.7808L26.1736 75.9107C27.1724 74.4352 28.9885 72.0516 31.6445 69.895C37.138 65.4003 43.3807 64.0837 50.1908 65.9678C53.7321 66.944 57.455 67.4434 61.2687 67.4434H79.3157C82.5619 67.4434 83.4245 70.2583 83.4245 71.9154C83.4245 73.1185 83.0386 74.2763 82.3576 75.0708C81.6312 75.9334 80.5642 76.3874 79.2476 76.3874H63.5615C62.2903 76.3874 61.2687 77.4089 61.2687 78.6802C61.2687 79.9514 62.2903 80.9729 63.5615 80.9729H79.2703C81.9263 80.9729 84.2644 79.9287 85.8535 78.0673C87.1928 76.5009 87.9419 74.4579 88.01 72.2559L102.856 57.5459C104.99 55.4121 108.304 55.9569 110.143 57.6594C111.119 58.522 112.413 60.3835 110.279 62.9033Z" fill="black" stroke="black" stroke-width="2" stroke-miterlimit="10"/>
<path d="M56.4337 78.0447C56.1386 76.8188 54.9128 76.047 53.6869 76.3421C52.4611 76.6372 51.6893 77.8631 51.9844 79.0889L52.0071 79.1797C52.2568 80.2239 53.1875 80.9503 54.2317 80.9503C54.4133 80.9503 54.5723 80.9276 54.7539 80.8822C55.9797 80.5871 56.7515 79.3613 56.4564 78.1355L56.4337 78.0447Z" fill="black" stroke="black" stroke-width="2" stroke-miterlimit="10"/>
<path d="M15.4137 49.0559H37.6376C38.8407 49.0559 39.9757 48.67 40.8837 47.989C41.7918 48.6473 42.9268 49.0559 44.1299 49.0559H66.3765C67.5796 49.0559 68.7147 48.67 69.6227 47.989C70.5307 48.6473 71.6657 49.0559 72.8689 49.0559H95.0927C98.1346 49.0559 100.609 46.5815 100.609 43.5397V33.1655C100.609 28.5119 97.9984 24.4712 94.0939 22.4735C95.9781 20.2035 97.1131 17.2751 97.1131 14.0743C97.1131 6.81011 91.2109 0.907959 83.9468 0.907959C76.6826 0.907959 70.7804 6.81011 70.7804 14.0743C70.7804 17.2524 71.9154 20.1808 73.7996 22.4735C72.1198 23.3361 70.6669 24.5847 69.5773 26.1056C68.4877 24.5847 67.0348 23.3361 65.355 22.4735C67.2391 20.2035 68.3742 17.2751 68.3742 14.0743C68.3742 6.81011 62.472 0.907959 55.2078 0.907959C47.9436 0.907959 42.0415 6.81011 42.0415 14.0743C42.0415 17.2524 43.1765 20.1808 45.0607 22.4735C43.3808 23.3361 41.928 24.5847 40.8383 26.1056C39.7487 24.5847 38.2959 23.3361 36.616 22.4735C38.5002 20.2035 39.6352 17.2751 39.6352 14.0743C39.6352 6.81011 33.7331 0.907959 26.4689 0.907959C19.2047 0.907959 13.3025 6.81011 13.3025 14.0743C13.3025 17.2524 14.4376 20.1808 16.3217 22.4735C12.4172 24.4712 9.80664 28.5119 9.80664 33.1655V43.5397C9.89744 46.5815 12.3718 49.0559 15.4137 49.0559ZM83.9922 5.47078C88.7366 5.47078 92.5957 9.32988 92.5957 14.0743C92.5957 18.8187 88.7366 22.6778 83.9922 22.6778C79.2477 22.6778 75.3886 18.8187 75.3886 14.0743C75.3886 9.32988 79.2477 5.47078 83.9922 5.47078ZM78.0446 25.8105C79.8379 26.7185 81.8356 27.2179 83.9695 27.2179C86.1033 27.2179 88.1237 26.6958 89.8943 25.8105C93.4356 26.4234 96.0462 29.488 96.0462 33.1428V43.517C96.0462 44.0391 95.6149 44.4704 95.0927 44.4704H72.8689C72.3468 44.4704 71.9154 44.0391 71.9154 43.517V33.1428C71.9154 29.488 74.5033 26.4234 78.0446 25.8105ZM55.2532 5.47078C59.9976 5.47078 63.8567 9.32988 63.8567 14.0743C63.8567 18.8187 59.9976 22.6778 55.2532 22.6778C50.5088 22.6778 46.6497 18.8187 46.6497 14.0743C46.6497 9.32988 50.5315 5.47078 55.2532 5.47078ZM49.3284 25.8105C51.1217 26.7185 53.1194 27.2179 55.2532 27.2179C57.3871 27.2179 59.4074 26.6958 61.1781 25.8105C64.7194 26.4234 67.3299 29.488 67.3299 33.1428V43.517C67.3299 44.0391 66.8986 44.4704 66.3765 44.4704H44.1526C43.6305 44.4704 43.1992 44.0391 43.1992 43.517V33.1428C43.1765 29.488 45.7871 26.4234 49.3284 25.8105ZM26.537 5.47078C31.2814 5.47078 35.1405 9.32988 35.1405 14.0743C35.1405 18.8187 31.2814 22.6778 26.537 22.6778C21.7926 22.6778 17.9335 18.8187 17.9335 14.0743C17.9335 9.32988 21.7926 5.47078 26.537 5.47078ZM14.4603 33.1655C14.4603 29.488 17.0708 26.4461 20.6121 25.8332C22.4055 26.7412 24.4031 27.2406 26.537 27.2406C28.6708 27.2406 30.6912 26.7185 32.4618 25.8332C36.0031 26.4461 38.6137 29.5107 38.6137 33.1655V43.5397C38.6137 44.0618 38.1824 44.4931 37.6603 44.4931H15.4137C14.8916 44.4931 14.4603 44.0618 14.4603 43.5397V33.1655Z" fill="black" stroke="black" stroke-width="2" stroke-miterlimit="10"/>
</g>
<defs>
<clipPath id="clip0_225_137">
<rect width="116" height="116" fill="white"/>
</clipPath>
</defs>
</svg>
