<svg width="116" height="116" viewBox="0 0 116 116" fill="none" xmlns="http://www.w3.org/2000/svg">
<g clip-path="url(#clip0_225_170)">
<path d="M116 58C116 26.0298 89.9702 0 58 0C47.9669 0 38.2145 2.59597 29.5379 7.48387H22.4516V0H11.2258V23.7379C3.88226 33.7242 0 45.5581 0 58C0 89.9935 26.0298 116 58 116C65.1331 116 72.079 114.714 78.6742 112.211C82.4395 114.597 86.9064 116 91.6774 116C97.5008 116 103.16 113.895 107.557 110.106L105.102 107.277C101.36 110.504 96.5887 112.281 91.654 112.281C80.3113 112.281 71.0734 103.044 71.0734 91.7008C71.0734 80.3581 80.3113 71.1202 91.654 71.1202C102.997 71.1202 112.235 80.3581 112.235 91.7008C112.235 96.4484 110.668 100.892 107.698 104.587L110.621 106.926C114.082 102.623 115.977 97.2202 115.977 91.6774C115.977 86.8831 114.573 82.4395 112.165 78.6742C114.714 72.079 116 65.1331 116 58ZM29.9355 18.7097H33.6774V22.4516V44.9032H29.9355V18.7097ZM22.4516 11.2258H26.1935V14.9677V44.9032H22.4516V11.2258ZM14.9677 3.74194H18.7097V7.48387V44.9032H14.9677V3.74194ZM56.129 112.211C27.6903 111.229 4.77097 88.3097 3.78871 59.871H56.129V112.211ZM56.129 56.129H3.8121C4.11613 47.0315 6.64194 38.3081 11.2258 30.5669V48.6452H18.7097H22.4516H26.1935H29.9355H33.6774H37.4194H41.1613H44.9032H52.3871V29.9355H44.9032V22.4516H37.4194V14.9677H29.9355V11.5766C37.8403 6.78226 46.8444 4.11613 56.129 3.78871V56.129ZM37.4194 44.9032V26.1935H41.1613V29.9355V44.9032H37.4194ZM44.9032 44.9032V33.6774H48.6452V44.9032H44.9032ZM112.211 56.129H96.1911L109.943 42.3774C111.276 46.7508 112.048 51.3581 112.211 56.129ZM102.786 27.4097L81.8782 48.3177L84.521 50.9605L104.821 30.6605C106.271 33.1395 107.534 35.7355 108.586 38.4484L90.9056 56.129H79.3524L81.7613 53.7202L79.1185 51.0774L74.0669 56.129H62.5137L97.6411 21.0016C99.5121 23.0129 101.219 25.1411 102.786 27.4097ZM59.871 3.78871C64.6419 3.95242 69.2492 4.72419 73.6226 6.05726L59.871 19.8089V3.78871ZM59.871 41.9331L82.6032 19.2008L79.9605 16.5581L59.871 36.6476V25.0944L77.5516 7.41371C80.2645 8.46613 82.8605 9.72903 85.3395 11.179L82.3226 14.1726L84.9887 16.8387L88.5903 13.2371C90.8589 14.7806 92.9871 16.5113 94.9984 18.3823L59.871 53.4863V41.9331ZM91.6774 67.3548C78.2766 67.3548 67.3548 78.2766 67.3548 91.6774C67.3548 98.7169 70.3718 105.031 75.1661 109.498C70.2315 111.135 65.1097 112.048 59.871 112.235V59.871H112.211C112.024 65.1097 111.112 70.2315 109.475 75.1661C105.031 70.3718 98.7169 67.3548 91.6774 67.3548Z" fill="black" stroke="black" stroke-width="2" stroke-miterlimit="10"/>
<path d="M45.4725 67.8888L23.0152 90.3461L25.6611 92.992L48.1184 70.5347L45.4725 67.8888Z" fill="black" stroke="black" stroke-width="2" stroke-miterlimit="10"/>
<path d="M43.0323 82.3226C39.9452 82.3226 37.4194 84.8484 37.4194 87.9355C37.4194 91.0226 39.9452 93.5484 43.0323 93.5484C46.1194 93.5484 48.6452 91.0226 48.6452 87.9355C48.6452 84.8484 46.1194 82.3226 43.0323 82.3226ZM43.0323 89.8065C42.0032 89.8065 41.1613 88.9646 41.1613 87.9355C41.1613 86.9065 42.0032 86.0646 43.0323 86.0646C44.0613 86.0646 44.9032 86.9065 44.9032 87.9355C44.9032 88.9646 44.0613 89.8065 43.0323 89.8065Z" fill="black" stroke="black" stroke-width="2" stroke-miterlimit="10"/>
<path d="M28.0645 67.3549C24.9774 67.3549 22.4516 69.8807 22.4516 72.9678C22.4516 76.0549 24.9774 78.5807 28.0645 78.5807C31.1516 78.5807 33.6774 76.0549 33.6774 72.9678C33.6774 69.8807 31.1516 67.3549 28.0645 67.3549ZM28.0645 74.8387C27.0355 74.8387 26.1935 73.9968 26.1935 72.9678C26.1935 71.9387 27.0355 71.0968 28.0645 71.0968C29.0935 71.0968 29.9355 71.9387 29.9355 72.9678C29.9355 73.9968 29.0935 74.8387 28.0645 74.8387Z" fill="black" stroke="black" stroke-width="2" stroke-miterlimit="10"/>
<path d="M91.6774 89.8065C89.6193 89.8065 87.9355 88.1226 87.9355 86.0646C87.9355 84.0065 89.6193 82.3226 91.6774 82.3226C93.7355 82.3226 95.4193 84.0065 95.4193 86.0646H99.1613C99.1613 82.5799 96.7758 79.6799 93.5484 78.8379V74.8387H89.8064V78.8379C86.579 79.6799 84.1935 82.5799 84.1935 86.0646C84.1935 90.1807 87.5613 93.5484 91.6774 93.5484C93.7355 93.5484 95.4193 95.2323 95.4193 97.2904C95.4193 99.3484 93.7355 101.032 91.6774 101.032C89.6193 101.032 87.9355 99.3484 87.9355 97.2904H84.1935C84.1935 100.775 86.579 103.675 89.8064 104.517V108.516H93.5484V104.517C96.7758 103.675 99.1613 100.775 99.1613 97.2904C99.1613 93.1742 95.7935 89.8065 91.6774 89.8065Z" fill="black" stroke="black" stroke-width="2" stroke-miterlimit="10"/>
<path d="M108.516 89.8065H104.774V93.5485H108.516V89.8065Z" fill="black" stroke="black" stroke-width="2" stroke-miterlimit="10"/>
<path d="M78.5807 89.8065H74.8387V93.5485H78.5807V89.8065Z" fill="black" stroke="black" stroke-width="2" stroke-miterlimit="10"/>
</g>
<defs>
<clipPath id="clip0_225_170">
<rect width="116" height="116" fill="white"/>
</clipPath>
</defs>
</svg>
